# xmcd CD database file
#
# Track frame offsets:
#	150
#	15107
#	38532
#	58517
#	81279
#	103082
#	132757
#	152560
#	173715
#	195675
#
# Disc length: 3012 seconds
#
# Revision: 0
# Processed by: cddbd v1.5.1PL2 Copyright (c) Steve Scherf et al.
# Submitted via: CDex 1.51
#
DISCID=6d0bc20a
DTITLE=Sunny Murray - 13# steps on glass
DYEAR=1995
DGENRE=Jazz
TTITLE0=Lover
TTITLE1=Blues for P.C.
TTITLE2=EMOI
TTITLE3=Constant Blues
TTITLE4=Well you needn't
TTITLE5=I want to talk about you
TTITLE6=Lonely man
TTITLE7=Moose the Mooche
TTITLE8=Out for a walk
TTITLE9=Sunny moon for two
EXTD=YEAR: 1995
EXTT0=
EXTT1=
EXTT2=
EXTT3=
EXTT4=
EXTT5=
EXTT6=
EXTT7=
EXTT8=
EXTT9=
PLAYORDER=
